<?xml version="1.0" standalone="no"?>
<!DOCTYPE svg PUBLIC "-//W3C//DTD SVG 20010904//EN"
 "http://www.w3.org/TR/2001/REC-SVG-20010904/DTD/svg10.dtd">
<svg version="1.0" xmlns="http://www.w3.org/2000/svg"
 width="512.000000pt" height="512.000000pt" viewBox="0 0 512.000000 512.000000"
 preserveAspectRatio="xMidYMid meet">

<g transform="translate(0.000000,512.000000) scale(0.100000,-0.100000)"
fill="#6f6b7d" stroke="none">
<path d="M681 4784 c-169 -45 -301 -180 -346 -351 -22 -85 -22 -1191 0 -1276
45 -173 178 -307 350 -352 88 -22 1192 -22 1280 0 172 45 305 179 350 352 22
85 22 1191 0 1276 -45 173 -178 307 -350 352 -85 22 -1202 21 -1284 -1z m1255
-330 c15 -11 37 -33 48 -48 21 -27 21 -37 21 -611 0 -574 0 -584 -21 -611 -11
-15 -33 -37 -48 -48 -27 -21 -37 -21 -611 -21 -574 0 -584 0 -611 21 -15 11
-37 33 -48 48 -21 27 -21 40 -24 584 -2 306 0 571 3 589 7 40 49 91 90 109 24
11 142 13 602 11 560 -2 572 -2 599 -23z"/>
<path d="M3723 4779 c-24 -12 -52 -37 -65 -57 -23 -36 -23 -42 -26 -404 l-3
-368 -366 0 c-350 0 -367 -1 -399 -20 -36 -23 -74 -91 -74 -135 0 -44 36 -107
77 -135 l36 -25 363 -3 363 -3 3 -363 3 -363 25 -36 c28 -41 91 -77 135 -77
44 0 107 36 135 77 l25 36 3 363 3 363 362 3 c357 3 362 3 399 26 40 25 78 91
78 137 0 43 -35 107 -73 133 -33 22 -36 22 -399 22 l-367 0 -3 368 -3 369 -25
36 c-28 41 -91 77 -136 77 -16 0 -48 -9 -71 -21z"/>
<path d="M681 2314 c-169 -45 -301 -180 -346 -351 -22 -85 -22 -1191 0 -1276
45 -173 178 -307 350 -352 88 -22 1192 -22 1280 0 172 45 305 179 350 352 22
85 22 1191 0 1276 -45 173 -178 307 -350 352 -85 22 -1202 21 -1284 -1z m1255
-330 c15 -11 37 -33 48 -48 21 -27 21 -37 21 -611 0 -574 0 -584 -21 -611 -11
-15 -33 -37 -48 -48 -27 -21 -37 -21 -611 -21 -574 0 -584 0 -611 21 -15 11
-37 33 -48 48 -21 27 -21 40 -24 584 -2 306 0 571 3 589 7 40 49 91 90 109 24
11 142 13 602 11 560 -2 572 -2 599 -23z"/>
<path d="M3151 2314 c-169 -45 -301 -180 -346 -351 -22 -85 -22 -1191 0 -1276
45 -173 178 -307 350 -352 88 -22 1192 -22 1280 0 172 45 305 179 350 352 12
48 15 155 15 638 0 483 -3 590 -15 638 -45 173 -178 307 -350 352 -85 22
-1202 21 -1284 -1z m1255 -330 c15 -11 37 -33 48 -48 21 -27 21 -37 21 -611 0
-574 0 -584 -21 -611 -11 -15 -33 -37 -48 -48 -27 -21 -37 -21 -611 -21 -574
0 -584 0 -611 21 -15 11 -37 33 -48 48 -21 27 -21 40 -24 584 -2 306 0 571 3
589 7 40 49 91 90 109 24 11 142 13 602 11 560 -2 572 -2 599 -23z"/>
</g>
</svg>
