<?xml version="1.0" standalone="no"?>
<!DOCTYPE svg PUBLIC "-//W3C//DTD SVG 20010904//EN"
 "http://www.w3.org/TR/2001/REC-SVG-20010904/DTD/svg10.dtd">
<svg version="1.0" xmlns="http://www.w3.org/2000/svg"
 width="512.000000pt" height="512.000000pt" viewBox="0 0 512.000000 512.000000"
 preserveAspectRatio="xMidYMid meet">

<g transform="translate(0.000000,512.000000) scale(0.100000,-0.100000)"
fill="#6f6b7d" stroke="none">
<path d="M1087 4843 c-104 -104 -260 -263 -348 -355 l-159 -167 0 -1831 0
-1831 25 -24 24 -25 1201 0 1201 0 24 25 c30 30 31 54 4 89 l-20 26 -1160 0
-1159 0 0 1740 0 1740 299 0 c287 0 299 1 325 21 l26 20 0 310 0 309 1185 0
1185 0 2 -1351 3 -1352 27 -20 c38 -29 84 -9 98 42 8 24 10 472 8 1409 l-3
1374 -24 19 c-23 18 -58 19 -1299 19 l-1276 0 -189 -187z m143 -268 l0 -205
-207 0 -208 0 205 205 c113 113 206 205 207 205 2 0 3 -92 3 -205z"/>
<path d="M1921 4594 c-24 -31 -25 -35 -10 -68 12 -26 41 -39 112 -51 40 -6
117 -70 117 -96 0 -10 -20 -19 -62 -28 -35 -7 -106 -33 -158 -58 -79 -38 -107
-59 -180 -132 -61 -62 -96 -107 -125 -163 -33 -64 -44 -78 -64 -78 -84 0 -195
-84 -219 -166 -17 -59 -15 -133 7 -179 36 -79 126 -144 201 -145 33 0 37 -3
75 -77 77 -150 231 -281 400 -339 72 -26 93 -28 215 -28 120 0 143 3 211 26
187 66 349 210 419 373 16 38 24 45 47 45 79 0 165 56 206 134 30 57 30 165 0
221 -39 74 -128 134 -200 135 -30 0 -35 5 -75 83 -51 99 -160 213 -258 270
-68 39 -203 87 -246 87 -24 0 -24 1 -9 29 22 44 75 80 135 91 66 12 90 33 90
75 0 52 -28 69 -103 63 -69 -6 -127 -31 -182 -79 l-35 -31 -44 37 c-56 46
-132 75 -195 75 -42 0 -53 -4 -70 -26z m424 -379 c107 -23 188 -67 270 -149
114 -114 165 -235 165 -391 0 -156 -51 -279 -164 -391 -176 -176 -427 -214
-647 -98 -82 43 -154 111 -209 195 -59 92 -82 173 -82 294 -1 165 53 288 176
402 75 71 142 108 238 133 89 23 160 24 253 5z m-809 -540 c0 -58 -3 -105 -6
-105 -3 0 -15 8 -26 18 -70 56 -53 157 32 192 0 0 1 -47 0 -105z m1443 59 c38
-48 18 -123 -40 -154 -18 -10 -19 -6 -19 95 0 101 1 105 19 95 11 -5 29 -22
40 -36z"/>
<path d="M1875 3851 c-22 -10 -48 -27 -57 -37 -24 -27 -48 -88 -48 -122 0 -35
37 -72 72 -72 29 0 68 41 68 70 0 10 7 23 15 30 24 20 49 7 63 -34 22 -69 73
-86 119 -40 22 22 24 31 19 67 -10 59 -47 111 -98 136 -54 26 -100 26 -153 2z"/>
<path d="M2435 3851 c-22 -10 -48 -27 -57 -37 -24 -27 -48 -88 -48 -122 0 -35
37 -72 72 -72 29 0 68 41 68 70 0 10 7 23 15 30 24 20 49 7 63 -34 22 -69 73
-86 119 -40 22 22 24 31 19 67 -10 59 -47 111 -98 136 -54 26 -100 26 -153 2z"/>
<path d="M1980 3500 c-38 -38 -19 -93 55 -158 133 -117 353 -85 445 64 36 57
8 114 -55 114 -27 0 -39 -8 -65 -40 -40 -50 -77 -70 -130 -70 -52 0 -86 18
-132 69 -42 47 -84 55 -118 21z"/>
<path d="M1125 2665 c-14 -13 -25 -33 -25 -45 0 -11 11 -32 25 -45 l24 -25
1079 0 c1034 0 1081 1 1103 18 31 26 31 78 0 104 -22 17 -69 18 -1103 18
l-1079 0 -24 -25z"/>
<path d="M1143 2190 c-44 -18 -56 -77 -23 -110 20 -20 31 -20 1111 -18 l1092
3 20 27 c17 23 18 31 8 56 -7 16 -24 34 -37 41 -30 14 -2137 15 -2171 1z"/>
<path d="M3634 1990 c-194 -51 -351 -179 -444 -362 -54 -109 -74 -204 -68
-337 8 -165 63 -304 169 -424 l41 -47 -108 -188 c-152 -262 -157 -273 -145
-305 17 -45 51 -50 157 -27 52 11 98 20 103 20 5 0 24 -43 41 -96 42 -126 73
-155 130 -124 10 5 80 118 156 249 76 132 140 239 142 237 1 -2 65 -111 141
-242 149 -259 163 -275 218 -244 21 12 34 37 59 114 19 54 36 101 38 103 2 3
52 -5 111 -17 98 -20 108 -20 130 -6 33 22 40 57 19 97 -9 19 -68 123 -131
232 l-115 197 34 38 c121 134 180 287 179 468 0 210 -87 396 -246 527 -167
138 -405 191 -611 137z m310 -136 c240 -62 407 -279 407 -529 0 -157 -52 -278
-165 -390 -110 -109 -230 -158 -386 -157 -243 1 -463 172 -525 407 -19 74 -19
203 0 275 50 189 202 343 391 395 68 18 204 18 278 -1z m-428 -1154 c35 -16
83 -35 108 -41 25 -6 46 -14 46 -17 0 -4 -168 -301 -175 -310 -2 -2 -11 21
-20 50 -29 88 -53 101 -147 79 -21 -5 -38 -6 -38 -3 0 11 151 272 157 272 3 0
34 -13 69 -30z m734 -110 c43 -74 77 -136 76 -136 0 -1 -27 3 -58 9 -77 14
-101 3 -124 -60 -9 -26 -20 -52 -24 -56 -4 -4 -46 60 -94 143 -48 84 -86 153
-84 155 2 1 28 10 58 19 30 9 78 27 105 40 28 13 54 23 59 22 5 -1 44 -62 86
-136z"/>
<path d="M3730 1687 c-153 -35 -261 -148 -289 -303 -22 -120 15 -231 109 -325
73 -74 144 -102 255 -102 113 0 181 28 261 107 129 129 148 317 46 466 -85
125 -240 189 -382 157z m180 -157 c96 -49 145 -157 120 -261 -10 -41 -24 -64
-64 -105 -43 -43 -60 -54 -107 -64 -231 -51 -381 232 -210 394 66 63 178 78
261 36z"/>
<path d="M1122 1277 c-29 -30 -28 -62 3 -92 l24 -25 551 0 551 0 24 25 c30 30
31 54 4 89 l-20 26 -558 0 -558 0 -21 -23z"/>
</g>
</svg>
