<?xml version="1.0" standalone="no"?>
<!DOCTYPE svg PUBLIC "-//W3C//DTD SVG 20010904//EN"
 "http://www.w3.org/TR/2001/REC-SVG-20010904/DTD/svg10.dtd">
<svg version="1.0" xmlns="http://www.w3.org/2000/svg"
 width="512.000000pt" height="512.000000pt" viewBox="0 0 512.000000 512.000000"
 preserveAspectRatio="xMidYMid meet">

<g transform="translate(0.000000,512.000000) scale(0.100000,-0.100000)"
fill="#6f6b7d" stroke="none">
<path d="M1902 4784 c-69 -18 -127 -53 -179 -106 -45 -47 -652 -991 -686
-1067 -12 -28 -22 -75 -25 -121 -4 -70 17 -167 317 -1480 185 -811 330 -1426
343 -1454 48 -105 138 -183 247 -216 65 -20 88 -21 662 -18 l594 3 67 32 c83
39 160 114 194 188 35 76 665 2822 671 2925 4 56 0 90 -14 135 -19 59 -549
959 -617 1048 -42 55 -115 103 -193 127 -62 19 -91 20 -697 19 -514 0 -641 -3
-684 -15z m1373 -171 c22 -11 52 -34 66 -50 29 -31 572 -933 594 -988 8 -19
15 -54 15 -78 0 -52 -632 -2825 -656 -2880 -22 -48 -79 -100 -135 -121 -40
-15 -101 -16 -620 -14 l-576 3 -48 30 c-99 61 -71 -39 -425 1510 -176 770
-320 1420 -320 1445 0 25 9 63 19 85 35 77 632 1000 664 1027 68 58 55 57 747
55 630 -2 635 -2 675 -24z"/>
<path d="M1985 4456 c-27 -13 -60 -34 -71 -47 -31 -34 -554 -856 -575 -904
-10 -22 -19 -61 -19 -87 0 -28 125 -551 320 -1340 258 -1040 326 -1302 348
-1338 16 -26 48 -57 76 -75 l49 -30 452 0 452 0 49 30 c29 18 60 49 76 75 22
36 91 304 348 1339 192 776 320 1312 320 1340 0 25 -9 64 -19 86 -22 49 -545
870 -575 904 -11 13 -43 34 -71 47 l-50 24 -530 0 -530 0 -50 -24z m1112 -158
c45 -49 553 -859 553 -882 0 -30 -627 -2561 -640 -2587 -6 -10 -19 -23 -30
-29 -26 -14 -804 -14 -830 0 -11 6 -24 19 -30 30 -14 26 -640 2555 -640 2586
0 23 506 830 553 882 l20 22 512 0 512 0 20 -22z"/>
</g>
</svg>
