<?xml version="1.0" standalone="no"?>
<!DOCTYPE svg PUBLIC "-//W3C//DTD SVG 20010904//EN"
 "http://www.w3.org/TR/2001/REC-SVG-20010904/DTD/svg10.dtd">
<svg version="1.0" xmlns="http://www.w3.org/2000/svg"
 width="512.000000pt" height="512.000000pt" viewBox="0 0 512.000000 512.000000"
 preserveAspectRatio="xMidYMid meet">

<g transform="translate(0.000000,512.000000) scale(0.100000,-0.100000)"
fill="#6f6b7d" stroke="none">
<path d="M4160 5009 c-171 -26 -198 -32 -216 -53 -13 -15 -51 -129 -108 -332
-49 -170 -90 -312 -93 -316 -2 -4 -48 14 -102 41 -121 61 -271 114 -405 143
-86 19 -132 22 -311 22 -181 0 -225 -3 -315 -22 -497 -108 -892 -408 -1114
-849 -60 -119 -65 -142 -34 -177 l23 -28 205 -2 c113 -1 213 1 222 6 9 4 45
50 80 101 228 333 576 510 978 494 220 -8 415 -73 594 -197 88 -61 224 -199
285 -289 223 -329 253 -768 75 -1127 -88 -177 -210 -314 -386 -435 -48 -33
-92 -68 -96 -77 -5 -9 -7 -109 -6 -221 l2 -205 27 -24 c36 -31 60 -26 179 34
439 221 738 615 848 1116 19 89 23 132 22 313 0 179 -3 225 -22 311 -29 134
-82 284 -143 405 -27 54 -45 100 -41 102 4 3 146 44 316 93 201 57 317 95 333
108 21 19 26 44 54 235 17 118 28 223 25 235 -3 12 -142 157 -309 324 -284
284 -305 302 -337 301 -19 -1 -123 -14 -230 -30z m245 -169 c16 -16 26 -33 22
-36 -4 -4 -35 -24 -69 -45 l-63 -38 -63 62 -63 62 68 11 c116 20 136 18 168
-16z m-293 -167 l66 -68 -132 -207 c-86 -136 -136 -207 -146 -205 -8 2 -15 9
-14 17 2 28 148 530 154 530 3 0 35 -30 72 -67z m511 -51 l68 -69 -43 -71 -43
-72 -97 97 -97 96 67 43 c37 23 69 43 72 43 3 1 36 -30 73 -67z m-141 -333
c-4 -4 -97 -63 -207 -133 l-199 -126 -24 23 -23 24 132 207 132 207 98 -97
c54 -54 95 -101 91 -105z m363 111 l28 -30 -13 -101 -13 -101 -63 63 c-58 58
-63 65 -50 84 7 11 25 41 40 68 15 26 31 47 35 47 4 0 20 -13 36 -30z m-1635
-65 c198 -44 397 -131 552 -242 105 -74 257 -226 331 -331 114 -159 200 -357
244 -562 25 -120 26 -429 0 -550 -62 -292 -192 -535 -397 -741 -103 -103 -182
-166 -287 -227 l-52 -31 -3 90 -3 90 80 59 c96 69 216 189 286 285 80 110 164
291 200 430 57 224 51 480 -18 700 -55 176 -169 368 -302 509 -130 136 -350
271 -536 329 -220 69 -476 75 -700 18 -139 -36 -320 -120 -430 -200 -95 -70
-215 -190 -285 -286 l-59 -80 -90 3 -90 3 31 52 c61 105 124 184 227 287 121
121 247 210 394 280 145 69 226 93 447 134 58 11 387 -3 460 -19z m1530 -295
c0 -6 -483 -145 -525 -152 -11 -2 -20 3 -22 12 -2 10 69 60 205 146 l207 132
68 -66 c37 -37 67 -69 67 -72z"/>
<path d="M1385 4535 c-25 -24 -25 -26 -25 -215 0 -189 0 -191 25 -215 15 -16
36 -25 55 -25 19 0 40 9 55 25 25 24 25 26 25 215 0 189 0 191 -25 215 -15 16
-36 25 -55 25 -19 0 -40 -9 -55 -25z"/>
<path d="M585 4215 c-16 -15 -25 -35 -25 -56 0 -28 18 -51 136 -170 76 -76
148 -140 162 -144 57 -14 111 40 97 97 -4 14 -68 86 -144 162 -119 118 -142
136 -170 136 -21 0 -41 -9 -56 -25z"/>
<path d="M265 3415 c-16 -15 -25 -36 -25 -55 0 -19 9 -40 25 -55 24 -25 26
-25 215 -25 189 0 191 0 215 25 16 15 25 36 25 55 0 19 -9 40 -25 55 -24 25
-26 25 -215 25 -189 0 -191 0 -215 -25z"/>
<path d="M2020 3202 c-21 -22 -30 -45 -41 -102 -16 -91 -16 -288 -1 -317 6
-11 33 -29 59 -39 344 -135 575 -361 694 -680 35 -92 39 -94 187 -94 165 1
258 18 289 54 13 15 23 34 23 43 0 31 -72 230 -116 319 -157 321 -442 600
-761 746 -81 37 -259 98 -286 98 -10 0 -31 -13 -47 -28z m231 -201 c251 -109
472 -293 625 -522 77 -116 179 -328 163 -343 -2 -2 -38 -7 -79 -11 l-75 -7
-40 89 c-87 194 -257 399 -431 521 -44 30 -125 77 -181 104 -57 27 -105 54
-108 59 -4 5 -3 41 1 79 4 49 11 70 20 70 8 0 55 -18 105 -39z"/>
<path d="M1020 3137 c-480 -218 -818 -654 -916 -1182 -26 -139 -26 -411 0
-550 108 -586 511 -1053 1071 -1242 176 -59 295 -77 505 -77 152 0 205 4 297
22 518 103 948 442 1161 914 34 76 42 105 37 128 -12 56 -26 59 -253 53 -113
-2 -213 -8 -222 -13 -9 -5 -37 -44 -62 -87 -224 -384 -689 -600 -1133 -528
-480 78 -852 450 -930 930 -72 444 144 909 527 1132 43 25 82 51 87 57 6 7 12
108 15 225 l4 214 -24 23 c-32 33 -55 30 -164 -19z m20 -257 l0 -89 -77 -52
c-99 -66 -275 -242 -340 -339 -95 -142 -162 -301 -199 -470 -26 -118 -26 -381
-1 -498 113 -519 489 -895 1009 -1009 116 -25 379 -24 498 1 168 36 328 104
470 199 97 65 273 241 339 340 l52 77 90 0 90 0 -32 -58 c-175 -312 -479 -561
-819 -670 -164 -53 -257 -66 -445 -66 -188 0 -280 13 -437 64 -433 142 -779
484 -923 913 -54 162 -69 257 -69 452 -1 248 34 410 134 623 88 188 268 410
431 530 46 34 218 142 227 142 1 0 2 -40 2 -90z"/>
<path d="M1525 2636 c-157 -42 -171 -70 -114 -233 144 -415 465 -765 859 -938
203 -90 286 -104 321 -55 33 45 53 147 54 270 0 143 -7 157 -97 190 -316 114
-563 361 -678 677 -34 93 -41 98 -179 100 -71 1 -135 -3 -166 -11z m203 -168
c13 -51 105 -218 163 -298 127 -174 285 -304 482 -398 l119 -57 -5 -73 c-3
-41 -8 -76 -11 -79 -8 -8 -74 16 -172 63 -328 156 -629 487 -734 808 -16 50
-7 56 83 56 63 0 69 -2 75 -22z"/>
<path d="M4105 1495 c-16 -15 -25 -36 -25 -55 0 -19 9 -40 25 -55 24 -25 26
-25 215 -25 189 0 191 0 215 25 16 15 25 36 25 55 0 19 -9 40 -25 55 -24 25
-26 25 -215 25 -189 0 -191 0 -215 -25z"/>
<path d="M3884 948 c-24 -11 -44 -48 -44 -80 0 -27 262 -294 298 -303 57 -14
111 40 97 97 -4 14 -68 86 -144 162 -142 141 -156 149 -207 124z"/>
<path d="M3305 695 c-25 -24 -25 -26 -25 -215 0 -189 0 -191 25 -215 32 -33
78 -33 110 0 25 24 25 26 25 215 0 189 0 191 -25 215 -15 16 -36 25 -55 25
-19 0 -40 -9 -55 -25z"/>
</g>
</svg>
