<?xml version="1.0" standalone="no"?>
<!DOCTYPE svg PUBLIC "-//W3C//DTD SVG 20010904//EN"
 "http://www.w3.org/TR/2001/REC-SVG-20010904/DTD/svg10.dtd">
<svg version="1.0" xmlns="http://www.w3.org/2000/svg"
 width="512.000000pt" height="512.000000pt" viewBox="0 0 512.000000 512.000000"
 preserveAspectRatio="xMidYMid meet">

<g transform="translate(0.000000,512.000000) scale(0.100000,-0.100000)"
fill="#6f6b7d" stroke="none">
<path d="M2326 4844 c-231 -39 -466 -141 -651 -283 -88 -67 -222 -206 -288
-299 -118 -165 -213 -382 -253 -582 -16 -77 -18 -198 -21 -1328 l-4 -1242
-187 0 c-246 0 -303 -15 -391 -100 -24 -23 -55 -67 -69 -98 -26 -55 -27 -64
-30 -269 l-3 -211 -190 -4 -191 -3 -24 -28 c-13 -15 -24 -37 -24 -48 0 -28 26
-75 45 -83 22 -8 5008 -8 5030 0 19 8 45 55 45 83 0 11 -11 33 -24 48 l-24 28
-191 3 -190 4 -3 211 c-3 205 -4 214 -30 269 -14 31 -45 75 -69 98 -88 85
-145 100 -391 100 l-187 0 -4 1242 c-4 1382 0 1299 -73 1518 -172 514 -614
889 -1149 975 -115 18 -348 18 -459 -1z m417 -165 c479 -72 888 -417 1032
-869 62 -197 58 -110 62 -1462 l4 -1238 -1281 0 -1281 0 4 1237 c4 1353 0
1266 62 1463 141 444 533 781 1005 865 93 16 298 19 393 4z m1700 -3769 c70
-48 77 -73 77 -289 l0 -191 -1960 0 -1960 0 0 193 c0 178 2 195 21 227 12 19
29 41 38 48 53 43 -26 41 1912 39 l1835 -2 37 -25z"/>
<path d="M1840 3487 c-54 -28 -61 -99 -13 -137 25 -20 43 -20 734 -20 l708 0
27 24 c36 30 39 86 6 119 l-23 22 -707 2 c-557 2 -712 0 -732 -10z"/>
<path d="M1820 3045 c-32 -34 -32 -87 -2 -118 l23 -22 719 0 719 0 23 22 c30
31 30 84 -2 118 l-23 25 -717 0 -717 0 -23 -25z"/>
</g>
</svg>
